<?xml version="1.0" encoding="UTF-8" standalone="no"?>
<!-- Created with Inkscape (http://www.inkscape.org/) -->

<svg
   xmlns:dc="http://purl.org/dc/elements/1.1/"
   xmlns:cc="http://creativecommons.org/ns#"
   xmlns:rdf="http://www.w3.org/1999/02/22-rdf-syntax-ns#"
   xmlns:svg="http://www.w3.org/2000/svg"
   xmlns="http://www.w3.org/2000/svg"
   xmlns:sodipodi="http://sodipodi.sourceforge.net/DTD/sodipodi-0.dtd"
   xmlns:inkscape="http://www.inkscape.org/namespaces/inkscape"
   width="210mm"
   height="297mm"
   viewBox="0 0 744.09448819 1052.3622047"
   id="svg2"
   version="1.1"
   inkscape:version="0.91 r13725"
   sodipodi:docname="B.svg">
  <defs
     id="defs4" />
  <sodipodi:namedview
     id="base"
     pagecolor="#ffffff"
     bordercolor="#666666"
     borderopacity="1.0"
     inkscape:pageopacity="0.0"
     inkscape:pageshadow="2"
     inkscape:zoom="0.7"
     inkscape:cx="-275.93933"
     inkscape:cy="265.71429"
     inkscape:document-units="px"
     inkscape:current-layer="layer1"
     showgrid="false"
     inkscape:window-width="1366"
     inkscape:window-height="709"
     inkscape:window-x="0"
     inkscape:window-y="0"
     inkscape:window-maximized="1" />
  <metadata
     id="metadata7">
    <rdf:RDF>
      <cc:Work
         rdf:about="">
        <dc:format>image/svg+xml</dc:format>
        <dc:type
           rdf:resource="http://purl.org/dc/dcmitype/StillImage" />
        <dc:title></dc:title>
      </cc:Work>
    </rdf:RDF>
  </metadata>
  <g
     inkscape:label="Layer 1"
     inkscape:groupmode="layer"
     id="layer1">
    <g
       style="font-style:normal;font-weight:normal;font-size:581.49194336px;line-height:125%;font-family:sans-serif;letter-spacing:0px;word-spacing:0px;fill:#000000;fill-opacity:1;stroke:none;stroke-width:1px;stroke-linecap:butt;stroke-linejoin:miter;stroke-opacity:1"
       id="text4136"
       transform="translate(1.0742236,-2.1428953)">
      <path
         d="m 61.279962,847.06189 0,155.31061 91.993838,0 q 46.28086,0 68.42752,-19.02344 22.4306,-19.30735 22.4306,-58.77384 0,-39.75043 -22.4306,-58.48992 -22.14666,-19.02341 -68.42752,-19.02341 l -91.993838,0 z m 0,-174.33401 0,127.76922 84.895548,0 q 42.02188,0 62.46496,-15.61624 20.72701,-15.90017 20.72701,-48.26837 0,-32.08427 -20.72701,-47.98444 -20.44308,-15.90017 -62.46496,-15.90017 l -84.895548,0 z m -57.3541856,-47.13265 146.5087136,0 q 65.5882,0 101.07965,27.25743 35.49145,27.25744 35.49145,77.51333 0,38.89863 -18.17162,61.8971 -18.17162,22.99846 -53.37914,28.67709 42.30581,9.08581 65.5882,38.04683 23.56632,28.6771 23.56632,71.8347 0,56.78633 -38.61469,87.73489 -38.6147,30.9485 -109.88154,30.9485 l -152.1873436,0 0,-423.90987 z"
         style="fill:#ff0000;stroke:#000000;stroke-width:10;stroke-miterlimit:4;stroke-dasharray:none"
         id="path4141"
         inkscape:connector-curvature="0" />
    </g>
  </g>
</svg>
